<?xml version="1.0" standalone="no"?>
<!DOCTYPE svg PUBLIC "-//W3C//DTD SVG 20010904//EN"
 "http://www.w3.org/TR/2001/REC-SVG-20010904/DTD/svg10.dtd">
<svg version="1.0" xmlns="http://www.w3.org/2000/svg"
 width="500.000000pt" height="500.000000pt" viewBox="0 0 500.000000 500.000000"
 preserveAspectRatio="xMidYMid meet">

<g transform="translate(0.000000,500.000000) scale(0.100000,-0.100000)"
fill="#000000" stroke="none">
<path d="M915 4061 c-51 -23 -88 -66 -111 -128 -49 -134 -77 -192 -109 -223
l-35 -34 0 -111 c0 -104 -2 -113 -26 -146 -59 -78 -56 -6 -56 -1197 l1 -1094
26 -54 c28 -57 63 -92 129 -127 l41 -22 1730 0 1730 0 47 28 c54 32 113 103
129 156 7 24 9 391 7 1131 l-3 1095 -28 45 c-15 25 -31 52 -36 60 -5 8 -17 37
-27 64 -9 28 -35 69 -57 93 -70 76 -31 73 -981 73 -570 0 -853 4 -880 11 -23
6 -57 29 -86 58 -38 38 -53 65 -80 139 -19 54 -46 107 -66 130 -64 75 -36 72
-661 72 -520 0 -561 -2 -598 -19z"/>
</g>
</svg>
