<?xml version="1.0" standalone="no"?>
<!DOCTYPE svg PUBLIC "-//W3C//DTD SVG 20010904//EN"
 "http://www.w3.org/TR/2001/REC-SVG-20010904/DTD/svg10.dtd">
<svg version="1.0" xmlns="http://www.w3.org/2000/svg"
 width="500.000000pt" height="500.000000pt" viewBox="0 0 500.000000 500.000000"
 preserveAspectRatio="xMidYMid meet">

<g transform="translate(0.000000,500.000000) scale(0.100000,-0.100000)"
fill="#000000" stroke="none">
<path d="M2395 3510 c-161 -19 -246 -59 -264 -125 -5 -21 -17 -32 -46 -42 -64
-21 -75 -42 -75 -142 0 -78 2 -90 23 -109 13 -12 37 -25 54 -28 23 -5 35 -14
42 -35 13 -38 66 -86 103 -94 16 -4 59 -10 96 -13 67 -7 67 -7 70 -39 l3 -33
-48 0 c-62 -1 -129 -31 -151 -70 -12 -22 -24 -30 -44 -30 -62 0 -102 -40 -101
-102 0 -18 -7 -44 -17 -58 -30 -46 -57 -124 -70 -205 -7 -47 -20 -90 -31 -104
-23 -29 -24 -43 -3 -87 19 -39 55 -54 81 -33 9 8 30 19 47 24 26 9 31 15 29
40 -1 16 -11 42 -23 57 -11 15 -20 38 -20 51 0 34 28 124 56 180 21 40 29 47
54 47 l30 0 0 -204 c0 -200 0 -204 24 -229 13 -14 37 -32 55 -41 28 -15 31
-21 30 -59 -1 -25 -9 -50 -20 -62 -32 -36 -40 -72 -25 -109 8 -19 19 -37 25
-40 6 -4 11 -20 11 -36 0 -24 -6 -30 -35 -40 -19 -6 -43 -22 -54 -36 -24 -31
-35 -88 -21 -114 10 -18 21 -20 123 -20 119 0 127 2 146 37 20 38 13 71 -24
112 -41 46 -44 73 -10 113 30 36 32 72 5 116 -12 20 -20 50 -20 77 l0 45 160
0 160 0 0 -54 c0 -33 -5 -58 -14 -65 -32 -27 -19 -123 19 -137 27 -11 17 -53
-20 -88 -28 -27 -35 -41 -35 -72 0 -22 7 -50 16 -62 14 -21 22 -22 135 -22
l119 0 11 26 c20 53 -32 134 -97 150 -32 8 -32 42 1 90 29 43 27 84 -6 120
-14 14 -19 35 -19 72 0 46 3 54 23 61 13 5 36 24 50 41 l27 32 0 205 c0 183 2
204 16 199 9 -3 27 -6 40 -6 20 0 29 -9 45 -47 48 -111 62 -192 38 -220 -9
-10 -21 -34 -28 -53 -10 -30 -9 -37 6 -47 9 -7 24 -13 34 -13 9 0 22 -7 29
-15 18 -22 53 -18 78 8 34 37 36 68 8 110 -15 21 -26 52 -26 70 0 51 -27 141
-62 210 -20 39 -31 74 -29 95 4 49 -43 92 -101 92 -37 0 -45 4 -60 30 -21 38
-88 69 -145 70 -42 0 -43 1 -43 34 l0 33 80 6 c110 7 163 34 196 98 18 36 30
49 47 49 52 1 77 45 77 139 0 59 -4 74 -25 99 -13 16 -37 32 -52 35 -20 5 -33
18 -48 49 -25 53 -72 81 -176 102 -95 19 -328 28 -434 16z m372 -21 c102 -14
183 -43 211 -74 21 -25 22 -34 22 -205 l0 -179 -31 -35 c-17 -20 -47 -41 -67
-47 -51 -16 -466 -23 -577 -11 -108 12 -133 23 -163 66 -21 30 -22 43 -22 207
0 195 3 205 68 238 33 17 91 31 182 45 57 8 304 5 377 -5z m-647 -284 l0 -125
-25 0 c-14 0 -37 11 -50 25 -22 21 -25 33 -25 100 0 67 3 79 25 100 13 14 36
25 50 25 l25 0 0 -125z m964 104 c24 -19 26 -26 26 -104 0 -78 -2 -85 -26
-104 -15 -12 -35 -21 -45 -21 -18 0 -19 10 -19 125 0 115 1 125 19 125 10 0
30 -9 45 -21z m-374 -429 l0 -30 -150 0 -150 0 0 30 0 30 150 0 150 0 0 -30z
m145 -64 c62 -26 65 -42 65 -353 0 -395 21 -373 -355 -373 -278 0 -303 4 -343
55 -21 27 -22 35 -22 315 0 282 0 288 23 321 12 18 33 36 47 40 14 4 143 7
288 8 206 1 270 -2 297 -13z m-670 -161 l0 -80 -33 2 c-42 2 -82 37 -82 73 0
48 47 92 95 87 18 -2 20 -9 20 -82z m850 59 c29 -31 33 -84 9 -108 -26 -27
-55 -38 -80 -32 -23 6 -24 11 -24 80 0 50 4 76 13 79 29 12 60 5 82 -19z
m-941 -133 c16 -17 15 -22 -13 -80 -16 -34 -35 -91 -42 -126 -11 -58 -15 -65
-36 -65 -20 0 -23 5 -23 39 0 67 66 251 90 251 4 0 14 -8 24 -19z m1008 -44
c26 -59 58 -172 58 -209 0 -12 -8 -16 -28 -16 -27 1 -29 4 -39 63 -6 35 -23
90 -38 124 -27 59 -27 62 -10 81 10 11 21 20 24 20 3 0 18 -29 33 -63z m-1053
-254 c11 -10 24 -33 27 -50 5 -27 3 -33 -11 -33 -10 0 -32 -9 -50 -20 l-33
-20 -21 26 c-27 34 -27 62 1 91 26 27 58 30 87 6z m1125 -4 c29 -23 33 -54 10
-87 -15 -22 -58 -30 -69 -13 -3 5 -19 12 -36 16 -27 6 -30 10 -24 33 9 37 44
72 70 72 12 0 34 -9 49 -21z m-364 -246 c0 -48 0 -48 -35 -49 -35 0 -35 0 -35
42 0 41 2 43 33 47 17 2 33 5 35 5 1 1 2 -19 2 -45z m-422 -5 c-3 -41 -4 -42
-40 -44 l-38 -1 0 44 0 43 41 0 40 0 -3 -42z m12 -80 c45 -49 8 -138 -58 -138
-40 0 -82 41 -82 80 0 69 93 108 140 58z m439 -4 c28 -36 27 -79 -4 -109 -49
-50 -134 -13 -135 58 0 69 97 104 139 51z m-469 -175 c0 -14 -7 -19 -30 -19
-25 0 -30 4 -30 23 0 20 4 23 30 19 21 -3 30 -10 30 -23z m450 6 c0 -21 -5
-25 -30 -25 -23 0 -30 5 -30 19 0 18 6 21 53 30 4 0 7 -10 7 -24z m-401 -71
c26 -33 27 -85 2 -108 -15 -14 -36 -16 -122 -14 l-104 3 -3 34 c-7 74 38 110
140 111 60 0 69 -2 87 -26z m461 11 c31 -16 60 -61 60 -93 0 -36 -23 -43 -125
-40 -92 3 -99 5 -117 29 -22 29 -17 65 13 98 16 17 32 21 80 21 34 0 73 -7 89
-15z"/>
<path d="M2332 3254 c-28 -19 -29 -57 -2 -84 26 -26 52 -25 78 3 27 29 28 51
2 77 -24 24 -48 25 -78 4z"/>
<path d="M2710 3250 c-11 -11 -20 -29 -20 -40 0 -25 34 -60 58 -60 31 0 62 29
62 59 0 55 -61 80 -100 41z"/>
<path d="M2480 3098 c0 -16 81 -31 117 -22 64 16 48 29 -37 29 -44 0 -80 -3
-80 -7z"/>
</g>
</svg>
