<?xml version="1.0" standalone="no"?>
<!DOCTYPE svg PUBLIC "-//W3C//DTD SVG 20010904//EN"
 "http://www.w3.org/TR/2001/REC-SVG-20010904/DTD/svg10.dtd">
<svg version="1.0" xmlns="http://www.w3.org/2000/svg"
 width="500.000000pt" height="500.000000pt" viewBox="0 0 500.000000 500.000000"
 preserveAspectRatio="xMidYMid meet">

<g transform="translate(0.000000,500.000000) scale(0.100000,-0.100000)"
fill="#000000" stroke="none">
<path d="M1044 3156 l-34 -34 0 -846 c0 -939 -3 -893 65 -922 29 -12 218 -14
1221 -14 l1187 0 -52 -53 c-68 -70 -121 -145 -115 -162 3 -7 12 -16 21 -19 17
-7 96 25 107 43 17 27 21 4 18 -96 l-3 -108 29 -25 c26 -23 30 -34 40 -130 7
-58 15 -122 18 -142 6 -34 4 -38 -14 -38 -33 0 -52 -11 -52 -31 0 -25 33 -41
78 -37 l37 3 -2 168 -2 167 67 0 68 0 18 -112 c9 -62 19 -121 22 -130 4 -13
-3 -21 -20 -28 -45 -17 -28 -54 31 -66 42 -8 66 17 59 65 -3 20 -8 93 -11 162
l-7 126 36 22 c28 18 36 30 41 64 11 73 -25 286 -61 359 -14 26 -13 27 43 53
85 38 123 72 148 129 48 108 51 241 9 342 -22 52 -90 113 -183 165 l-80 44 -1
524 0 523 -34 34 -34 34 -1312 0 -1312 0 -34 -34z m2644 15 c7 0 24 -13 37
-27 l25 -27 0 -518 c0 -286 -1 -519 -2 -519 -2 0 -32 9 -66 20 -35 11 -92 20
-125 20 -82 0 -137 -32 -239 -138 -130 -133 -169 -253 -120 -364 39 -88 133
-169 243 -208 129 -45 132 -45 -1149 -48 l-1203 -2 -30 29 -29 29 0 849 c0
788 2 850 18 870 9 12 27 26 40 30 17 7 2532 10 2600 4z m19 -1112 c167 -59
265 -129 304 -217 23 -54 26 -186 5 -256 -24 -80 -54 -113 -136 -154 -72 -36
-78 -37 -180 -37 -175 1 -311 50 -416 150 -80 76 -97 179 -48 285 29 62 183
222 236 245 55 24 137 18 235 -16z m-19 -696 l104 -6 17 -41 c35 -82 45 -142
46 -255 l0 -115 -60 -19 c-73 -23 -209 -19 -269 6 l-39 17 5 120 c4 92 9 124
22 138 9 10 16 24 16 30 0 24 -25 11 -75 -37 -27 -28 -63 -53 -80 -57 l-29 -7
34 44 c19 24 61 71 93 105 31 34 57 69 57 79 0 14 6 16 28 11 15 -3 74 -9 130
-13z m101 -567 c-1 -82 -5 -78 -17 15 -7 54 -6 66 5 62 9 -4 13 -26 12 -77z
m8 -108 c-3 -7 -5 -2 -5 12 0 14 2 19 5 13 2 -7 2 -19 0 -25z m-244 -115 c-7
-2 -19 -2 -25 0 -7 3 -2 5 12 5 14 0 19 -2 13 -5z"/>
<path d="M1263 2525 c0 -33 2 -45 4 -27 2 18 2 45 0 60 -2 15 -4 0 -4 -33z"/>
<path d="M1262 2440 c0 -14 2 -19 5 -12 2 6 2 18 0 25 -3 6 -5 1 -5 -13z"/>
<path d="M1263 2340 c0 -41 2 -58 4 -37 2 20 2 54 0 75 -2 20 -4 3 -4 -38z"/>
<path d="M1261 2084 c0 -11 3 -14 6 -6 3 7 2 16 -1 19 -3 4 -6 -2 -5 -13z"/>
<path d="M3321 1847 c-18 -22 -25 -74 -10 -82 18 -11 49 31 49 66 0 31 -19 39
-39 16z"/>
</g>
</svg>
