<?xml version="1.0" standalone="no"?>
<!DOCTYPE svg PUBLIC "-//W3C//DTD SVG 20010904//EN"
 "http://www.w3.org/TR/2001/REC-SVG-20010904/DTD/svg10.dtd">
<svg version="1.0" xmlns="http://www.w3.org/2000/svg"
 width="262.000000pt" height="142.000000pt" viewBox="0 0 262.000000 142.000000"
 preserveAspectRatio="xMidYMid meet">

<g transform="translate(0.000000,142.000000) scale(0.100000,-0.100000)"
fill="#000000" stroke="none">
<path d="M191 722 l-111 -222 220 0 c121 0 220 3 219 8 0 4 -49 104 -108 222
l-109 215 -111 -223z m177 13 c34 -69 62 -127 62 -128 0 -2 -38 -4 -85 -5 -47
0 -85 3 -85 8 0 30 14 40 56 40 24 0 44 3 44 8 -1 4 -14 32 -29 62 l-29 54
-51 -102 -51 -102 125 0 c114 0 125 -2 135 -20 11 -20 8 -20 -155 -20 -91 0
-165 3 -166 8 0 10 155 321 161 322 3 0 33 -56 68 -125z"/>
<path d="M598 934 c-5 -4 -8 -103 -8 -221 l0 -213 35 0 34 0 3 88 3 87 45 -87
c44 -87 45 -88 82 -88 21 0 38 5 38 10 0 6 -19 47 -41 92 -33 65 -39 85 -30
98 42 56 51 79 51 120 0 36 -6 53 -29 80 -27 33 -32 35 -102 38 -41 2 -77 0
-81 -4z m131 -95 c24 -43 -8 -114 -48 -107 -12 2 -17 17 -19 57 -2 29 -1 60 2
68 9 22 49 11 65 -18z"/>
<path d="M910 930 c0 -6 20 -51 45 -100 25 -49 45 -95 45 -102 0 -7 -23 -60
-50 -117 -28 -57 -50 -105 -50 -107 0 -2 17 -4 38 -4 39 0 39 0 66 70 15 39
31 70 36 70 4 0 18 -26 30 -57 31 -77 37 -83 76 -83 37 0 43 13 20 45 -7 11
-30 58 -50 104 l-37 85 45 97 c25 53 46 100 46 103 0 3 -16 6 -36 6 -34 0 -37
-3 -62 -60 -15 -33 -29 -60 -32 -60 -3 0 -16 27 -28 60 -23 59 -24 60 -63 60
-21 0 -39 -5 -39 -10z"/>
<path d="M1250 719 l0 -220 38 3 37 3 3 55 c2 30 1 128 -3 218 l-7 162 -34 0
-34 0 0 -221z"/>
<path d="M1390 910 c0 -21 5 -30 18 -32 9 0 22 -2 29 -2 25 -3 28 -23 28 -194
l0 -177 31 -3 31 -3 7 119 c4 65 6 146 5 179 -3 71 3 83 42 83 26 0 29 3 29
30 l0 30 -110 0 -110 0 0 -30z"/>
<path d="M1678 793 c-2 -82 -2 -178 0 -215 l3 -68 89 0 90 0 0 34 0 35 -52 3
-53 3 0 60 0 60 32 -3 c47 -5 75 14 71 46 -3 25 -6 27 -53 27 l-50 0 -3 48 -3
47 33 0 c60 0 78 10 78 41 l0 29 -89 0 -90 0 -3 -147z"/>
<path d="M1975 907 c-67 -67 -60 -114 30 -203 67 -65 82 -103 53 -132 -15 -15
-74 -16 -83 -2 -12 19 -35 10 -41 -17 -9 -36 17 -53 83 -53 66 0 110 34 120
92 9 58 -2 82 -72 151 -45 45 -65 72 -65 90 0 35 23 51 64 43 30 -6 34 -4 40
19 9 37 1 45 -51 45 -38 0 -50 -5 -78 -33z"/>
<path d="M2205 930 c-17 -27 20 -65 56 -58 11 2 15 -33 17 -184 l2 -188 35 0
35 0 2 187 c3 180 4 188 23 189 52 2 55 4 55 34 l0 30 -109 0 c-63 0 -112 -4
-116 -10z"/>
</g>
</svg>
