<?xml version="1.0" standalone="no"?>
<!DOCTYPE svg PUBLIC "-//W3C//DTD SVG 20010904//EN"
 "http://www.w3.org/TR/2001/REC-SVG-20010904/DTD/svg10.dtd">
<svg version="1.0" xmlns="http://www.w3.org/2000/svg"
 width="500.000000pt" height="500.000000pt" viewBox="0 0 500.000000 500.000000"
 preserveAspectRatio="xMidYMid meet">

<g transform="translate(0.000000,500.000000) scale(0.100000,-0.100000)"
fill="#000000" stroke="none">
<path d="M2335 3963 c-243 -31 -460 -111 -655 -241 -123 -82 -310 -271 -395
-400 -175 -266 -254 -550 -242 -872 15 -381 160 -713 432 -986 205 -206 440
-333 728 -396 138 -30 437 -32 567 -4 174 37 343 100 464 173 367 220 616 583
702 1018 26 135 24 397 -5 530 -32 151 -70 258 -133 383 -79 157 -154 259
-277 382 -221 220 -493 356 -811 405 -86 13 -299 18 -375 8z m396 -79 c297
-51 532 -174 750 -393 200 -201 318 -414 380 -686 19 -86 22 -127 22 -300 0
-219 -8 -270 -65 -443 -40 -121 -109 -256 -184 -363 -68 -98 -229 -268 -241
-256 -4 5 -10 343 -13 752 -5 735 -5 744 -26 772 -11 15 -36 38 -54 51 l-33
22 -774 0 c-647 0 -778 -2 -801 -14 -41 -21 -81 -68 -92 -107 -6 -21 -10 -311
-10 -746 0 -521 -3 -713 -11 -713 -30 0 -207 210 -283 337 -268 447 -253 1033
39 1478 194 296 523 527 845 593 30 6 75 15 100 20 77 16 350 14 451 -4z m539
-909 c17 -9 39 -33 50 -55 19 -38 20 -58 20 -492 0 -281 -4 -467 -10 -490 -14
-49 -53 -94 -104 -120 -40 -21 -51 -21 -691 -25 -357 -1 -676 0 -708 3 -72 8
-132 49 -164 114 -23 44 -23 47 -23 513 0 517 -1 508 63 547 31 19 56 20 785
20 654 0 757 -2 782 -15z m-1600 -1161 c8 -8 33 -27 58 -41 l44 -26 252 -2
c209 -1 251 -4 251 -16 0 -8 -6 -60 -14 -117 -15 -115 -20 -120 -105 -109 -57
8 -110 -8 -130 -38 -23 -34 -20 -59 10 -94 l26 -31 424 0 c409 0 425 1 444 20
26 26 33 60 21 92 -15 40 -55 56 -139 55 -40 0 -76 4 -81 9 -11 12 -35 210
-26 223 4 7 88 11 251 11 263 0 280 3 340 53 18 15 35 27 38 27 3 0 6 -98 6
-218 0 -252 10 -227 -115 -302 -293 -179 -668 -246 -995 -179 -178 37 -377
120 -515 216 l-70 48 -3 218 c-1 123 1 217 7 217 5 0 14 -7 21 -16z m987 -142
c6 -37 12 -83 12 -102 1 -19 6 -52 12 -72 l10 -38 97 0 c63 0 102 -4 110 -12
15 -15 16 -45 1 -54 -15 -9 -813 -9 -828 0 -15 10 -14 41 2 54 7 6 58 13 113
14 l99 3 12 55 c6 30 17 91 23 135 7 44 17 83 24 87 6 4 76 5 156 2 l145 -5
12 -67z"/>
<path d="M1778 2903 c-14 -9 -31 -27 -37 -40 -7 -16 -11 -156 -11 -409 l0
-386 34 -34 34 -34 681 0 c748 0 724 -2 756 60 13 24 15 89 15 411 l0 381 -34
34 -34 34 -688 0 c-624 -1 -692 -2 -716 -17z m1407 -48 l25 -24 0 -369 0 -369
-26 -27 -27 -26 -669 0 -669 0 -24 25 -25 24 0 369 c0 358 1 370 21 396 l20
26 675 0 675 0 24 -25z"/>
<path d="M2428 1933 c-33 -5 -50 -25 -46 -55 3 -22 7 -23 109 -26 86 -2 108 0
119 13 10 12 10 21 2 40 -10 21 -19 25 -54 26 -24 1 -56 2 -73 3 -16 2 -42 1
-57 -1z m160 -45 c-3 -22 -9 -23 -87 -26 -86 -3 -108 5 -98 32 5 13 24 16 97
16 89 0 91 -1 88 -22z"/>
<path d="M1827 1614 c-4 -4 -7 -38 -7 -76 0 -54 -3 -68 -15 -68 -20 0 -19 -13
3 -33 24 -22 35 -21 58 4 13 14 15 22 7 27 -7 4 -13 38 -15 76 -3 64 -13 87
-31 70z"/>
<path d="M1946 1598 c-14 -20 -14 -23 -1 -31 11 -6 15 -26 15 -77 0 -63 2 -70
20 -70 18 0 20 7 20 74 0 59 3 75 15 78 14 3 14 5 0 26 -20 28 -49 28 -69 0z"/>
<path d="M3060 1603 c-35 -13 -60 -47 -60 -83 0 -44 19 -73 59 -90 26 -10 35
-10 63 7 67 39 74 117 15 154 -32 19 -50 22 -77 12z m58 -49 c30 -21 29 -59
-3 -80 -54 -36 -103 29 -58 78 20 22 32 23 61 2z"/>
</g>
</svg>
